<svg width="1440" height="2300" viewBox="0 0 1440 2300" fill="none" xmlns="http://www.w3.org/2000/svg">
  <defs>
    <linearGradient id="bg" x1="0" y1="0" x2="1440" y2="2300" gradientUnits="userSpaceOnUse">
      <stop offset="0" stop-color="#0B0F1A"/>
      <stop offset="1" stop-color="#0F172A"/>
    </linearGradient>
    <linearGradient id="accent" x1="0" y1="0" x2="220" y2="0" gradientUnits="userSpaceOnUse">
      <stop offset="0" stop-color="#7C3AED"/>
      <stop offset="1" stop-color="#22D3EE"/>
    </linearGradient>
  </defs>

  <rect width="1440" height="2300" fill="url(#bg)"/>

  <!-- Grid guides (12 cols, 80px margins, 16px gutter) -->
  <g opacity="0.08" fill="#94A3B8">
    <rect x="80" y="0" width="92" height="2300"/>
    <rect x="188" y="0" width="92" height="2300"/>
    <rect x="296" y="0" width="92" height="2300"/>
    <rect x="404" y="0" width="92" height="2300"/>
    <rect x="512" y="0" width="92" height="2300"/>
    <rect x="620" y="0" width="92" height="2300"/>
    <rect x="728" y="0" width="92" height="2300"/>
    <rect x="836" y="0" width="92" height="2300"/>
    <rect x="944" y="0" width="92" height="2300"/>
    <rect x="1052" y="0" width="92" height="2300"/>
    <rect x="1160" y="0" width="92" height="2300"/>
    <rect x="1268" y="0" width="92" height="2300"/>
  </g>

  <!-- Nav -->
  <text x="80" y="56" fill="#E2E8F0" font-size="14" font-family="IBM Plex Mono, monospace">ShimLayer</text>
  <text x="520" y="56" fill="#94A3B8" font-size="12" font-family="IBM Plex Mono, monospace">How it works</text>
  <text x="640" y="56" fill="#94A3B8" font-size="12" font-family="IBM Plex Mono, monospace">Scope</text>
  <text x="720" y="56" fill="#94A3B8" font-size="12" font-family="IBM Plex Mono, monospace">Pricing</text>
  <text x="820" y="56" fill="#94A3B8" font-size="12" font-family="IBM Plex Mono, monospace">Alpha</text>
  <rect x="1120" y="34" width="230" height="36" rx="10" fill="url(#accent)"/>
  <text x="1150" y="57" fill="#0B0F1A" font-size="12" font-family="IBM Plex Mono, monospace">Request Alpha Access</text>
  <rect x="80" y="80" width="1280" height="1" fill="#1F2937"/>

  <!-- Split layout -->
  <rect x="496" y="110" width="1" height="2050" fill="#1F2937"/>

  <!-- Left: fixed hero -->
  <text x="90" y="150" fill="#A5B4FC" font-size="10" font-family="IBM Plex Mono, monospace">ALPHA · API‑FIRST · TRACEABLE</text>
  <text x="90" y="210" fill="#E2E8F0" font-size="40" font-family="IBM Plex Mono, monospace">Human recovery layer</text>
  <text x="90" y="254" fill="#E2E8F0" font-size="40" font-family="IBM Plex Mono, monospace">for AI agents</text>
  <text x="90" y="300" fill="#CBD5F5" font-size="16" font-family="Inter, sans-serif">When an agent gets stuck, uncertain, or reaches a risky action,</text>
  <text x="90" y="326" fill="#CBD5F5" font-size="16" font-family="Inter, sans-serif">ShimLayer routes the step to a human and returns a bounded intervention.</text>
  <text x="90" y="356" fill="#94A3B8" font-size="12" font-family="IBM Plex Mono, monospace">API‑first · 1–3 min interventions · full trace</text>

  <rect x="90" y="382" width="220" height="46" rx="12" fill="#7C3AED"/>
  <text x="120" y="410" fill="#F8FAFC" font-size="12" font-family="IBM Plex Mono, monospace">Request Alpha Access</text>
  <rect x="90" y="440" width="220" height="40" rx="10" fill="none" stroke="#1F2937"/>
  <text x="122" y="466" fill="#CBD5F5" font-size="12" font-family="IBM Plex Mono, monospace">See how it works</text>

  <rect x="90" y="520" width="360" height="1" fill="#1F2937"/>
  <text x="90" y="548" fill="#94A3B8" font-size="11" font-family="IBM Plex Mono, monospace">TRUSTED BY PRODUCT TEAMS</text>
  <text x="90" y="576" fill="#CBD5F5" font-size="12" font-family="Inter, sans-serif">Parable · Reveri Health · Listener · NewsChat</text>

  <!-- Right: scroll content -->
  <text x="512" y="150" fill="#94A3B8" font-size="12" font-family="IBM Plex Mono, monospace">00</text>
  <text x="542" y="150" fill="#A5B4FC" font-size="11" font-family="IBM Plex Mono, monospace">RUNTIME BOUNDARY</text>
  <rect x="512" y="170" width="760" height="210" rx="14" fill="#0D1625" stroke="#1F2937"/>
  <text x="542" y="210" fill="#E2E8F0" font-size="12" font-family="IBM Plex Mono, monospace">agent.run()</text>
  <text x="542" y="236" fill="#E2E8F0" font-size="12" font-family="IBM Plex Mono, monospace">if stuck or low_confidence or risky_action:</text>
  <text x="542" y="262" fill="#E2E8F0" font-size="12" font-family="IBM Plex Mono, monospace">    result = shimlayer.resolve(context)</text>
  <text x="542" y="288" fill="#E2E8F0" font-size="12" font-family="IBM Plex Mono, monospace">    agent.apply(result)</text>
  <text x="542" y="320" fill="#94A3B8" font-size="10" font-family="IBM Plex Mono, monospace">input: logs, state, screenshot · output: decision + trace · delivery: push + pull</text>

  <rect x="512" y="420" width="760" height="1" fill="#1F2937"/>

  <text x="512" y="456" fill="#94A3B8" font-size="12" font-family="IBM Plex Mono, monospace">01</text>
  <text x="542" y="456" fill="#A5B4FC" font-size="11" font-family="IBM Plex Mono, monospace">THIS IS FOR / NOT FOR</text>
  <text x="542" y="486" fill="#CBD5F5" font-size="12" font-family="Inter, sans-serif">Teams running agents in production · Not for prompt playgrounds</text>

  <rect x="512" y="520" width="760" height="1" fill="#1F2937"/>

  <text x="512" y="556" fill="#94A3B8" font-size="12" font-family="IBM Plex Mono, monospace">02</text>
  <text x="542" y="556" fill="#A5B4FC" font-size="11" font-family="IBM Plex Mono, monospace">FAILURE MODES / SOLUTION</text>
  <text x="542" y="586" fill="#CBD5F5" font-size="12" font-family="Inter, sans-serif">Stuck loops · UI drift · Low confidence · Risky actions</text>

  <rect x="512" y="620" width="760" height="1" fill="#1F2937"/>

  <text x="512" y="656" fill="#94A3B8" font-size="12" font-family="IBM Plex Mono, monospace">03</text>
  <text x="542" y="656" fill="#A5B4FC" font-size="11" font-family="IBM Plex Mono, monospace">HOW IT WORKS</text>
  <text x="542" y="686" fill="#CBD5F5" font-size="12" font-family="Inter, sans-serif">Input context → Human decision → Agent continues (traceable)</text>

  <rect x="512" y="720" width="760" height="1" fill="#1F2937"/>

  <text x="512" y="756" fill="#94A3B8" font-size="12" font-family="IBM Plex Mono, monospace">04</text>
  <text x="542" y="756" fill="#A5B4FC" font-size="11" font-family="IBM Plex Mono, monospace">ALPHA SCOPE</text>
  <text x="542" y="786" fill="#CBD5F5" font-size="12" font-family="Inter, sans-serif">Stuck states · Broken UI · Binary approvals</text>

  <rect x="512" y="820" width="760" height="1" fill="#1F2937"/>

  <text x="512" y="856" fill="#94A3B8" font-size="12" font-family="IBM Plex Mono, monospace">05</text>
  <text x="542" y="856" fill="#A5B4FC" font-size="11" font-family="IBM Plex Mono, monospace">PROOF LAYER</text>
  <text x="542" y="886" fill="#CBD5F5" font-size="12" font-family="Inter, sans-serif">Execution log · timestamps · reason codes · replayable trace</text>

  <rect x="512" y="920" width="760" height="1" fill="#1F2937"/>

  <text x="512" y="956" fill="#94A3B8" font-size="12" font-family="IBM Plex Mono, monospace">06</text>
  <text x="542" y="956" fill="#A5B4FC" font-size="11" font-family="IBM Plex Mono, monospace">PRICING</text>
  <text x="542" y="986" fill="#CBD5F5" font-size="12" font-family="Inter, sans-serif">$1.80 per recovery · Free tier 50/mo · $49/25 · $199/120 · $999/600</text>

  <rect x="512" y="1020" width="760" height="1" fill="#1F2937"/>

  <text x="512" y="1056" fill="#94A3B8" font-size="12" font-family="IBM Plex Mono, monospace">07</text>
  <text x="542" y="1056" fill="#A5B4FC" font-size="11" font-family="IBM Plex Mono, monospace">ALPHA PROGRAM</text>
  <text x="542" y="1086" fill="#CBD5F5" font-size="12" font-family="Inter, sans-serif">Early alpha · limited capacity · manual onboarding · feedback loop</text>

  <rect x="512" y="1120" width="760" height="1" fill="#1F2937"/>

  <text x="512" y="1156" fill="#94A3B8" font-size="12" font-family="IBM Plex Mono, monospace">08</text>
  <text x="542" y="1156" fill="#A5B4FC" font-size="11" font-family="IBM Plex Mono, monospace">REQUEST ACCESS</text>
  <rect x="542" y="1180" width="320" height="36" rx="10" fill="#0F172A" stroke="#1F2937"/>
  <rect x="542" y="1226" width="320" height="36" rx="10" fill="#0F172A" stroke="#1F2937"/>
  <rect x="542" y="1272" width="320" height="36" rx="10" fill="#0F172A" stroke="#1F2937"/>
  <rect x="882" y="1180" width="320" height="36" rx="10" fill="#0F172A" stroke="#1F2937"/>
  <rect x="882" y="1226" width="320" height="36" rx="10" fill="#0F172A" stroke="#1F2937"/>
  <rect x="882" y="1270" width="180" height="40" rx="10" fill="url(#accent)"/>
  <text x="904" y="1296" fill="#0B0F1A" font-size="12" font-family="IBM Plex Mono, monospace">Request Alpha Access</text>

  <rect x="512" y="1360" width="760" height="1" fill="#1F2937"/>
  <text x="542" y="1390" fill="#94A3B8" font-size="11" font-family="IBM Plex Mono, monospace">Docs · Contact · Privacy</text>
</svg>
