<svg width="1440" height="2600" viewBox="0 0 1440 2600" fill="none" xmlns="http://www.w3.org/2000/svg">
  <defs>
    <linearGradient id="bg" x1="0" y1="0" x2="1440" y2="2600" gradientUnits="userSpaceOnUse">
      <stop offset="0" stop-color="#0B0F1A"/>
      <stop offset="1" stop-color="#0F172A"/>
    </linearGradient>
    <filter id="softShadow" x="-20%" y="-20%" width="140%" height="140%">
      <feDropShadow dx="0" dy="10" stdDeviation="20" flood-color="#000000" flood-opacity="0.35"/>
    </filter>
  </defs>

  <rect width="1440" height="2600" fill="url(#bg)"/>

  <!-- Top Nav -->
  <rect x="80" y="28" width="1280" height="64" rx="16" fill="#0B1220" stroke="#1F2937"/>
  <rect x="104" y="50" width="120" height="20" rx="6" fill="#1F2937"/>
  <rect x="260" y="50" width="90" height="20" rx="6" fill="#111827"/>
  <rect x="360" y="50" width="90" height="20" rx="6" fill="#111827"/>
  <rect x="460" y="50" width="90" height="20" rx="6" fill="#111827"/>
  <rect x="1160" y="44" width="180" height="32" rx="10" fill="#22D3EE"/>

  <!-- Hero -->
  <rect x="80" y="120" width="1280" height="340" rx="24" fill="#0B1220" stroke="#1F2937" filter="url(#softShadow)"/>
  <rect x="120" y="152" width="90" height="24" rx="8" fill="#111827"/>
  <rect x="220" y="152" width="110" height="24" rx="8" fill="#111827"/>
  <rect x="340" y="152" width="120" height="24" rx="8" fill="#111827"/>
  <rect x="120" y="198" width="640" height="48" rx="10" fill="#0F172A"/>
  <rect x="120" y="258" width="520" height="22" rx="8" fill="#111827"/>
  <rect x="120" y="288" width="460" height="22" rx="8" fill="#111827"/>
  <rect x="120" y="330" width="220" height="46" rx="12" fill="#7C3AED"/>
  <rect x="360" y="330" width="220" height="46" rx="12" fill="#111827"/>
  <rect x="840" y="170" width="480" height="250" rx="18" fill="#0F172A" stroke="#1F2937"/>
  <rect x="870" y="198" width="420" height="22" rx="8" fill="#111827"/>
  <rect x="870" y="230" width="360" height="18" rx="6" fill="#111827"/>
  <rect x="870" y="260" width="420" height="120" rx="14" fill="#0B1220" stroke="#1F2937"/>
  <rect x="890" y="282" width="220" height="14" rx="6" fill="#111827"/>
  <rect x="890" y="306" width="260" height="14" rx="6" fill="#111827"/>
  <rect x="890" y="330" width="180" height="14" rx="6" fill="#111827"/>
  <rect x="1140" y="282" width="140" height="80" rx="12" fill="#111827"/>

  <!-- Audience filter -->
  <rect x="80" y="500" width="1280" height="140" rx="20" fill="#0B1220" stroke="#1F2937"/>
  <rect x="120" y="530" width="240" height="18" rx="6" fill="#111827"/>
  <rect x="120" y="562" width="520" height="18" rx="6" fill="#111827"/>
  <rect x="120" y="590" width="460" height="18" rx="6" fill="#111827"/>
  <rect x="720" y="530" width="180" height="18" rx="6" fill="#111827"/>
  <rect x="720" y="562" width="520" height="18" rx="6" fill="#111827"/>
  <rect x="720" y="590" width="420" height="18" rx="6" fill="#111827"/>

  <!-- Problem / Solution -->
  <rect x="80" y="680" width="620" height="220" rx="20" fill="#0B1220" stroke="#1F2937"/>
  <rect x="120" y="710" width="200" height="20" rx="6" fill="#111827"/>
  <rect x="120" y="742" width="420" height="16" rx="6" fill="#111827"/>
  <rect x="120" y="770" width="360" height="16" rx="6" fill="#111827"/>
  <rect x="120" y="798" width="300" height="16" rx="6" fill="#111827"/>
  <rect x="120" y="826" width="260" height="16" rx="6" fill="#111827"/>

  <rect x="740" y="680" width="620" height="220" rx="20" fill="#0B1220" stroke="#1F2937"/>
  <rect x="780" y="710" width="220" height="20" rx="6" fill="#111827"/>
  <rect x="780" y="742" width="460" height="16" rx="6" fill="#111827"/>
  <rect x="780" y="770" width="420" height="16" rx="6" fill="#111827"/>
  <rect x="780" y="798" width="380" height="16" rx="6" fill="#111827"/>

  <!-- How it works (code) -->
  <rect x="80" y="940" width="1280" height="260" rx="20" fill="#0B1220" stroke="#1F2937"/>
  <rect x="120" y="970" width="180" height="20" rx="6" fill="#111827"/>
  <rect x="120" y="1010" width="520" height="140" rx="12" fill="#0F172A" stroke="#1F2937"/>
  <rect x="140" y="1030" width="200" height="14" rx="6" fill="#111827"/>
  <rect x="140" y="1054" width="260" height="14" rx="6" fill="#111827"/>
  <rect x="140" y="1078" width="300" height="14" rx="6" fill="#111827"/>
  <rect x="140" y="1102" width="240" height="14" rx="6" fill="#111827"/>
  <rect x="720" y="1010" width="600" height="140" rx="12" fill="#0F172A" stroke="#1F2937"/>
  <rect x="740" y="1030" width="200" height="14" rx="6" fill="#111827"/>
  <rect x="740" y="1054" width="320" height="14" rx="6" fill="#111827"/>
  <rect x="740" y="1078" width="280" height="14" rx="6" fill="#111827"/>
  <rect x="740" y="1102" width="260" height="14" rx="6" fill="#111827"/>

  <!-- MVP Scope -->
  <rect x="80" y="1240" width="1280" height="200" rx="20" fill="#0B1220" stroke="#1F2937"/>
  <rect x="120" y="1270" width="220" height="20" rx="6" fill="#111827"/>
  <rect x="120" y="1306" width="520" height="16" rx="6" fill="#111827"/>
  <rect x="120" y="1334" width="460" height="16" rx="6" fill="#111827"/>
  <rect x="120" y="1362" width="420" height="16" rx="6" fill="#111827"/>
  <rect x="120" y="1390" width="360" height="16" rx="6" fill="#111827"/>

  <!-- Proof / Trust -->
  <rect x="80" y="1480" width="1280" height="180" rx="20" fill="#0B1220" stroke="#1F2937"/>
  <rect x="120" y="1510" width="240" height="20" rx="6" fill="#111827"/>
  <rect x="120" y="1544" width="520" height="16" rx="6" fill="#111827"/>
  <rect x="120" y="1572" width="460" height="16" rx="6" fill="#111827"/>
  <rect x="720" y="1510" width="500" height="80" rx="14" fill="#0F172A" stroke="#1F2937"/>
  <rect x="740" y="1530" width="180" height="14" rx="6" fill="#111827"/>
  <rect x="740" y="1554" width="260" height="14" rx="6" fill="#111827"/>

  <!-- Pricing -->
  <rect x="80" y="1700" width="1280" height="240" rx="20" fill="#0B1220" stroke="#1F2937"/>
  <rect x="120" y="1730" width="180" height="20" rx="6" fill="#111827"/>
  <rect x="120" y="1762" width="460" height="16" rx="6" fill="#111827"/>
  <rect x="120" y="1790" width="360" height="16" rx="6" fill="#111827"/>
  <rect x="120" y="1828" width="120" height="40" rx="10" fill="#111827"/>
  <rect x="260" y="1828" width="120" height="40" rx="10" fill="#111827"/>
  <rect x="400" y="1828" width="120" height="40" rx="10" fill="#111827"/>

  <!-- Alpha -->
  <rect x="80" y="1980" width="1280" height="160" rx="20" fill="#0B1220" stroke="#1F2937"/>
  <rect x="120" y="2010" width="220" height="20" rx="6" fill="#111827"/>
  <rect x="120" y="2042" width="520" height="16" rx="6" fill="#111827"/>
  <rect x="120" y="2070" width="460" height="16" rx="6" fill="#111827"/>

  <!-- Lead form -->
  <rect x="80" y="2180" width="1280" height="300" rx="20" fill="#0B1220" stroke="#1F2937"/>
  <rect x="120" y="2210" width="200" height="20" rx="6" fill="#111827"/>
  <rect x="120" y="2246" width="520" height="40" rx="10" fill="#0F172A" stroke="#1F2937"/>
  <rect x="120" y="2296" width="520" height="40" rx="10" fill="#0F172A" stroke="#1F2937"/>
  <rect x="120" y="2346" width="520" height="40" rx="10" fill="#0F172A" stroke="#1F2937"/>
  <rect x="720" y="2246" width="520" height="40" rx="10" fill="#0F172A" stroke="#1F2937"/>
  <rect x="720" y="2296" width="520" height="40" rx="10" fill="#0F172A" stroke="#1F2937"/>
  <rect x="720" y="2346" width="220" height="44" rx="12" fill="#7C3AED"/>

  <!-- Footer -->
  <rect x="80" y="2520" width="1280" height="56" rx="14" fill="#0B1220" stroke="#1F2937"/>
  <rect x="120" y="2540" width="120" height="16" rx="6" fill="#111827"/>
  <rect x="260" y="2540" width="120" height="16" rx="6" fill="#111827"/>
  <rect x="400" y="2540" width="120" height="16" rx="6" fill="#111827"/>
</svg>
